<?xml version="1.0" encoding="UTF-8"?><svg id="Layer_2" xmlns="http://www.w3.org/2000/svg" viewBox="0 0 54.47 80"><defs><style>.cls-1{fill:#fff;}</style></defs><g id="Layer_1-2"><g id="computing"><path class="cls-1" d="M40.23,31.22c0-3.3,3.48-5.42,6.43-3.93,4.64,2.35,7.81,7.16,7.81,12.71s-3.18,10.36-7.81,12.71c-2.94,1.49-6.43-.63-6.43-3.93V31.22Z"/><path class="cls-1" d="M40.23,21.88V4.18C40.23,1.71,38.09-.25,35.64,.03,15.58,2.31,0,19.33,0,40s15.58,37.69,35.64,39.97c2.46,.28,4.6-1.68,4.6-4.16v-17.69c0-2.06-1.43-3.81-3.42-4.3-6.21-1.53-10.82-7.14-10.82-13.83s4.61-12.29,10.82-13.83c2-.49,3.42-2.24,3.42-4.3"/></g></g></svg>