<?xml version="1.0" encoding="UTF-8"?><svg id="Layer_2" xmlns="http://www.w3.org/2000/svg" viewBox="0 0 50 50"><defs><style>.cls-1{fill:#fff;}</style></defs><g id="Layer_1-2"><g id="swiper-nav-stroke"><path id="swiper-nav-arrow" class="cls-1" d="M23.79,12.44c-1.07-1.07-2.79-1.07-3.86,0-1.07,1.07-1.07,2.79,0,3.86l8.58,8.58-8.82,8.82c-1.07,1.07-1.07,2.79,0,3.86,.53,.53,1.23,.8,1.93,.8s1.4-.27,1.93-.8l10.74-10.75c1.07-1.07,1.07-2.79,0-3.86l-10.51-10.51Z"/><path class="cls-1" d="M25,5c11.03,0,20,8.97,20,20s-8.97,20-20,20S5,36.03,5,25,13.97,5,25,5m0-5C11.19,0,0,11.19,0,25s11.19,25,25,25,25-11.19,25-25S38.81,0,25,0h0Z"/></g></g></svg>