<?xml version="1.0" encoding="UTF-8"?><svg id="Layer_2" xmlns="http://www.w3.org/2000/svg" viewBox="0 0 50 50"><defs><style>.cls-1{fill:#fff;}</style></defs><g id="Layer_1-2"><g id="swiper-nav-fill"><path class="cls-1" d="M34.18,26.91l-10.66,10.66c-.53,.53-1.22,.79-1.91,.79s-1.38-.26-1.91-.79c-1.06-1.06-1.06-2.77,0-3.83l8.74-8.74-8.51-8.51c-1.06-1.06-1.06-2.77,0-3.83,1.06-1.06,2.77-1.06,3.83,0l10.42,10.42c1.06,1.06,1.06,2.77,0,3.83ZM25,0C11.21,0,0,11.21,0,25s11.21,25,25,25,25-11.22,25-25S38.79,0,25,0Z"/></g></g></svg>